<?xml version="1.0" encoding="UTF-8"?>
<!DOCTYPE svg PUBLIC "-//W3C//DTD SVG 1.1//EN" "http://www.w3.org/Graphics/SVG/1.1/DTD/svg11.dtd">
<!-- Creator: CorelDRAW 2019 (64-Bit) -->
<svg xmlns="http://www.w3.org/2000/svg" xml:space="preserve" width="21cm" height="29.7cm" version="1.1" shape-rendering="geometricPrecision" text-rendering="geometricPrecision" image-rendering="optimizeQuality" fill-rule="evenodd" clip-rule="evenodd"
viewBox="0 0 21000 29700"
 xmlns:xlink="http://www.w3.org/1999/xlink"
 xmlns:xodm="http://www.corel.com/coreldraw/odm/2003">
 <g id="Слой_x0020_1">
  <metadata id="CorelCorpID_0Corel-Layer"/>
  <path fill="#B387FF" stroke="#9C27B0" stroke-width="350" stroke-miterlimit="22.9256" d="M12833.67 25608.56l1679.22 -3797.33 1946.16 801.64c59.17,26.85 125.25,54.16 188.53,78.62 389.01,150.39 1321.58,640.7 1627.89,871.87l381.92 305.03c26.51,20.67 43.01,40.68 67.89,65.7 217.53,218.91 456.21,542.01 569.71,823.28 124.63,308.88 236.46,569.78 236.46,946.59l-450.44 26.59c-258.93,48.39 -4675.11,30.23 -4949.77,30.65l-1153.35 -48.79c-110.1,-24.63 -100.88,-21.95 -144.22,-103.85zm-6411.56 152.64l-4472.72 -30.65c-69.96,-13.07 -148.3,-7.16 -221.84,-7.12 -107.37,0.05 -120.47,-19.47 -228.6,-19.47 -35.41,-151.91 24.25,-305.14 64.75,-450.44 51.41,-184.5 118.41,-331.71 189.45,-497.5 111.27,-259.68 192.97,-379.67 363.9,-609.31 130.92,-175.91 394.43,-385.56 580.64,-526.1l1243.86 -702.53 2429.62 -1062.36c43.84,-20.67 70.64,-26.49 108.18,-44.49 186.75,278.9 509.04,1046.61 651.26,1409.6 178.18,454.9 433.98,991.87 615.66,1445.19l450.46 942.54c-65.4,123.59 -128.28,111.08 -363.21,113.81 -96.51,1.13 -103.72,20.17 -208.86,20.13 -82.81,-0.02 -165.63,-0.36 -248.46,-0.36 -179.33,0 -296.71,19.58 -457.95,19.09 -165.36,-0.52 -330.78,-0.03 -496.14,-0.03zm1068.58 -4369.79c0,-147.87 403.86,-553.37 553.4,-553.37 86.59,0 169.35,78.95 229.39,114.07l529.77 328.94c171.67,109.24 881.88,489.45 881.88,682.82 0,87.23 -188.98,387.95 -57.74,668.36l343.97 514.75c0,32.58 -81.16,186.11 -102.93,221.45 -203.33,330.41 -527.77,1029.28 -604.51,1418.19 -19.31,97.98 -35.92,187.29 -74.91,268.54 -92.18,0 -97.28,-13.16 -190.4,-172.14l-375.98 -768.97c-23.19,-48.25 -27.58,-72.32 -50.57,-121.14l-902.1 -2112.88c-33.99,-83.5 -179.27,-423.62 -179.27,-488.62zm4388.88 3721c-84.74,-126.55 -136.58,-482.4 -255.58,-774.83l-329.57 -719.97c-81.09,-162.18 -153.66,-316.18 -235.38,-470.63l110.66 -156.48c222.97,-334.47 331.51,-431.33 240.77,-824.66 -63.78,-276.43 -133.36,-278.53 297.36,-564.51l1278.48 -801.44c55.52,0 610.64,462.25 610.64,496.12 0,67.01 -161.43,407.06 -196.98,489.97l-203.65 483.3c-36.46,80.31 -66.69,150.47 -103.04,240.46l-419.79 973.18c-33.94,84.02 -73.09,161.28 -107.17,236.31l-152.26 362.95c-113.1,249.09 -375.8,923.96 -534.49,1030.23zm1660.14 -6048.99c0,-304.13 -21.23,-785.24 64.19,-1042.56 57.06,-171.92 147.17,-273.41 233.6,-415.19 83.25,-136.6 158.78,-262.75 236.04,-393.67 42.62,-72.23 76.72,-132.34 114.94,-209.47 228.63,-461.32 182.24,-9.33 660.36,770.82 282.65,461.17 732.64,1259.8 732.64,1786.19 0,306.13 -38.66,552.18 -165.09,808.09 -63.15,127.86 -227.03,451.32 -407.37,451.32 -282.92,0 -756.6,-338.4 -987.54,-539.01 -34.49,-29.95 -34.67,-24.61 -65.66,-48.84 -145.79,-113.88 -274.01,-269.48 -337.75,-444.6 -63.78,-175.19 -78.36,-483.67 -78.36,-723.08zm-6831.37 -5839.1c70.04,0 247.1,371.31 357.51,482.06 44.7,44.83 64.73,60.85 100.19,109.74l351.25 297.52c168.2,122.33 337.28,212.75 539.71,299.91 105.18,45.28 205.73,77.3 315.26,104.55 457.02,113.61 526.53,52.78 909.67,-94.12l323.6 -191.59c242.89,-185.1 93.24,-59.95 265.29,-249.92 314.22,-346.95 580.85,-710.58 1078.53,-209.58 162.9,163.96 218.37,283.75 304.93,382.01 35.41,40.21 53.28,39.04 95.72,76.02 465.41,405.86 1246.73,364.49 1782.61,93.78 164.03,-82.87 205.52,-102.32 344.67,-208.72 88.8,-67.91 240.23,-214.78 348.66,-223.8 0,501.51 -178.3,1634.49 -326.44,2039.74 -15.08,41.27 -29.82,68.2 -48.14,123.6 -121.46,367.14 -231.1,538.45 -388.48,851.84l-274.9 431.15c-87.69,120.6 -140.05,176.99 -176.09,358.21 -59.16,297.59 -10.61,1756.6 -79.24,2038.84 -52.69,216.66 -298.24,317.76 -557.63,491.89l-984.79 599.03c-43.81,26.73 -76.25,46.36 -118.08,72.73 -74.82,47.15 -142.12,72.93 -221.32,122.18 -148.34,92.25 -232.34,36.85 -465.65,-110.93 -349.59,-221.44 -725.13,-419.57 -1102.96,-671.67l-210 -133.5c-309.94,-206.62 -408.86,-242.84 -408.73,-659.86 0.21,-487.83 -18.7,-910.95 -18.68,-1393.38 0,-236.17 -9.56,-456.91 -110.75,-595.27 -393.99,-538.72 -503.34,-716.13 -759.3,-1358.82 -91.59,-230.02 -200.54,-564.87 -236.67,-812.83 -14.9,-102.19 -44.29,-196.44 -100,-262.57 -187.63,-222.58 -416.36,-295.53 -560.45,-489.07 -194.82,-261.71 -235.29,-469.59 -197.16,-831.01 8.14,-77.03 42.28,-200.7 67.77,-275.71 27.72,-81.58 66.1,-202.45 160.09,-202.45zm-248.08 -3415.7c0,-168.33 16.34,-266.82 18.42,-439.55 8.13,-672.42 373.58,-1678.31 826.05,-2207.99l114 -134.08c680.78,-709.76 1682.83,-1092.04 2667.12,-1092.04 647.76,0 1604.99,60.92 2102.83,454.18 45.05,35.56 91.34,89.34 134.53,132.61 118.32,118.55 224.68,183.3 373.29,256.44 599.35,294.86 283.68,42.41 931.11,519.11 242.89,178.86 490.06,679.18 605,959.73 389.45,950.53 382.85,2225.45 186.3,3232.24 -62.25,318.79 -199.93,715.28 -268.58,1009.92l-7270.25 0c-8.91,-107.04 -54.5,-197.41 -80.24,-301.43l-214.13 -949.85 -87.88 -694.48c-7.52,-240.59 -37.57,-496.24 -37.57,-744.81zm-1011.34 -95.4c0,593.53 27.5,1114.97 114.5,1679.22 43.65,283.19 228.98,953.4 228.98,1144.9 0,316.28 -645.14,1050.08 -229.03,2060.91 95.67,232.38 227.57,465.72 405.77,643.74l151.34 153.98c23.65,18.37 36.4,33.97 58.24,56.23 139.98,142.69 176.27,116.93 260.11,369.62 115.21,347.29 77.58,445.64 307.46,951.93 275.03,605.68 281.41,587.52 607.12,1072.13 57.32,85.28 98.79,200.67 114.54,305.27 49.36,327.9 39.04,1145.4 -10.93,1431.96 -33.85,194.12 -64.86,285.27 -156.82,415.65 -94.41,133.87 -218.16,257.06 -348.97,357.04 -341.7,261.17 -731.11,431.49 -1114.07,622.43l-508.88 216.23c-79.09,34.03 -131.46,55.87 -215.33,89.99l-401.91 170.54c-261.44,123.22 -544.2,219.48 -801.67,343.25 -138.54,66.6 -275.73,118.62 -406.81,184.72l-388.06 184.41c-71.24,35.63 -119.61,59.81 -190.83,95.42l-184.63 101.58c-63.1,36.58 -115.57,62.14 -182.98,103.27 -65.47,39.94 -114.29,69.82 -175.52,110.68 -141.27,94.3 -286.98,197.89 -408.95,316.19l-229.35 209.53c-142.66,142.66 -302.32,273.5 -422.56,436.13l-254.5 317.99c-172.79,224.09 -309.51,487.94 -413.61,750.37 -83.44,210.32 -156.32,432.14 -200.86,657.83 -66.69,338.05 -206.9,911.43 -12.98,1231.65 118.01,194.84 431.4,199.48 660.34,198.38 217.31,-1.06 359.59,18.93 572.61,18.93 785.69,-0.02 1516.73,19.07 2308.91,19.07l15972.06 -37.78c178.48,0.07 519.32,-10.41 625.9,-175.57 38.54,-59.72 64.39,-102.9 84.24,-182.87 60.83,-244.83 3.16,-514.92 -23.1,-749.15 -36.04,-321.28 -130.58,-643.3 -245.97,-937.13 -29.48,-75.07 -49.48,-128.46 -85.49,-200.74l-253.03 -472.08c-26.08,-42.8 -29.05,-53.62 -57.05,-95.63 -188.21,-282.58 -502.75,-651.59 -756.75,-865.22 -39.39,-33.13 -45.21,-26.76 -86.16,-66.47 -193.31,-187.47 -445.93,-354.16 -685.17,-478.84 -45.37,-23.64 -47.87,-30.6 -82.76,-50.82l-871.13 -464.62c-445.42,-222.92 -824.98,-345.16 -1227.57,-527.99 -292.65,-132.9 -213.88,-106.45 -19.18,-496.03 67.09,-134.24 122.49,-242.04 174.15,-398.32 146.22,-442.3 205.27,-929.21 126.84,-1391.05 -134.73,-793.2 -498.38,-1229.89 -841.38,-1887.36 -23.51,-45.1 -30.58,-47.83 -50.94,-82.65 -244.53,-418.64 -628.98,-1329.42 -523.59,-1801.67 18.16,-81.41 31.35,-103.36 57.9,-171.09 30.53,-77.89 34.57,-104.53 71.13,-176.92 29.43,-58.26 46.92,-94.16 76.38,-152.6 86.7,-172.03 139.71,-347.15 176.87,-548.24 123.53,-668.04 -11.9,-1098.96 -297.95,-1652.49 -64.05,-123.91 5.21,-278.52 45.53,-412.74 175.46,-583.93 298.11,-1201.51 298.11,-1819.99 0,-642.71 -10.62,-1048.08 -134.87,-1677.92 -62.88,-318.8 -183.07,-708.48 -304.1,-974.4l-95.31 -209.99c-35.89,-71.73 -66.2,-143.81 -110.6,-213.81 -43.43,-68.49 -68.96,-122.63 -114.58,-190.74 -46.5,-69.46 -81.23,-125.81 -132.21,-192.18 -534.62,-696.4 -826.91,-680.57 -1466.89,-1071.02l-460.74 -321.61c-33.72,-28.38 -52.29,-57.27 -85.99,-85.76 -496.68,-419.9 -1043.27,-465.97 -1651.12,-562.41 -338.9,-53.75 -745.93,-58.21 -1092.16,-34.23 -505.77,35.02 -1194.73,179.69 -1633.24,351.27l-624.53 291.41c-77.53,38.25 -123.51,65.12 -196.01,109.31 -127.16,77.51 -245.23,161.87 -356.07,254.54l-467.21 429.67c-348.87,348.18 -636.18,864.07 -817.54,1319.63 -249.43,626.46 -389.39,1365.63 -389.39,2053.13z"/>
 </g>
</svg>
