<svg width="1200" height="336" viewBox="0 0 1200 336" fill="none" xmlns="http://www.w3.org/2000/svg">
<path fill-rule="evenodd" clip-rule="evenodd" d="M0 84L7 90C15 96 30 108 44 120C59 132 74 144 89 132C104 120 119 84 133 102C148 120 163 192 178 186C193 180 207 96 222 108C237 120 252 228 267 240C281 252 296 168 311 108C326 48 341 12 356 12C370 12 385 48 400 72C415 96 430 108 444 144C459 180 474 240 489 252C504 264 519 228 533 186C548 144 563 96 578 90C593 84 607 120 622 144C637 168 652 180 667 192C681 204 696 216 711 192C726 168 741 108 756 66C770 24 785 0 800 0C815 0 830 24 844 54C859 84 874 120 889 108C904 96 919 36 933 42C948 48 963 120 978 174C993 228 1007 264 1022 282C1037 300 1052 300 1067 252C1081 204 1096 108 1111 72C1126 36 1141 60 1156 108C1170 156 1185 228 1193 264L1200 300V336H1193C1185 336 1170 336 1156 336C1141 336 1126 336 1111 336C1096 336 1081 336 1067 336C1052 336 1037 336 1022 336C1007 336 993 336 978 336C963 336 948 336 933 336C919 336 904 336 889 336C874 336 859 336 844 336C830 336 815 336 800 336C785 336 770 336 756 336C741 336 726 336 711 336C696 336 681 336 667 336C652 336 637 336 622 336C607 336 593 336 578 336C563 336 548 336 533 336C519 336 504 336 489 336C474 336 459 336 444 336C430 336 415 336 400 336C385 336 370 336 356 336C341 336 326 336 311 336C296 336 281 336 267 336C252 336 237 336 222 336C207 336 193 336 178 336C163 336 148 336 133 336C119 336 104 336 89 336C74 336 59 336 44 336C30 336 15 336 7 336H0V84Z" fill="#B388FF"/>
<path fill-rule="evenodd" clip-rule="evenodd" d="M0 146.25L7 150.768C15 155.286 30 177.964 44 187C59 196.036 64.5 200.464 79.5 191.428C94.5 182.393 109 155.286 123 168.839C138 182.393 153 262.518 168 258C183 253.482 201.5 173.357 215.5 173.357C237 182 245.5 256.964 260.5 266C274.5 275.036 305 225.179 320 180C335 134.821 343 72.3214 358 72.3214C372 72.3214 376.5 105.589 391.5 123.661C406.5 141.732 423 168.893 437 196C452 223.107 474 266.464 489 275.5C504 284.536 527.5 273.446 541.5 241.821C556.5 210.196 563 168.839 578 164.321C593 159.803 605.5 187.75 620.5 205.821C635.5 223.893 652 218.536 667 227.571C681 236.607 696 245.643 711 227.571C726 209.5 741 164.321 756 132.696C770 101.071 785 82.9998 800 82.9998C815 82.9998 830 101.071 844 123.661C859 146.25 874 173.357 889 164.321C904 155.286 919 110.107 933 114.625C948 119.143 963 186.911 978 227.571C993 268.232 1007 295.339 1022 308.893C1037 322.446 1058.5 320.536 1073.5 284.393C1087.5 248.25 1106 166.446 1121 139.339C1136 112.232 1141 132.696 1156 168.839C1170 204.982 1185 248.393 1193 275.5L1200 308.893V336H1193C1185 336 1170 336 1156 336C1141 336 1126 336 1111 336C1096 336 1081 336 1067 336C1052 336 1037 336 1022 336C1007 336 993 336 978 336C963 336 948 336 933 336C919 336 904 336 889 336C874 336 859 336 844 336C830 336 815 336 800 336C785 336 770 336 756 336C741 336 726 336 711 336C696 336 681 336 667 336C652 336 637 336 622 336C607 336 593 336 578 336C563 336 548 336 533 336C519 336 504 336 489 336C474 336 459 336 444 336C430 336 415 336 400 336C385 336 370 336 356 336C341 336 326 336 311 336C296 336 281 336 267 336C252 336 237 336 222 336C207 336 193 336 178 336C163 336 148 336 133 336C119 336 104 336 89 336C74 336 59 336 44 336C30 336 15 336 7 336H0V146.25Z" fill="#773DDD"/>
</svg>
