<svg width="1201" height="324" viewBox="0 0 1201 324" fill="none" xmlns="http://www.w3.org/2000/svg">
<path fill-rule="evenodd" clip-rule="evenodd" d="M0.198853 324L9.19885 288C17.1989 252 35.1989 180 52.1989 168C70.1989 156 87.1989 204 104.199 228C122.199 252 139.199 252 157.199 222C174.199 192 191.199 132 209.199 114C226.199 96 243.199 120 261.199 162C278.199 204 296.199 264 313.199 252C330.199 240 348.199 156 365.199 138C383.199 120 400.199 168 417.199 168C435.199 168 452.199 120 470.199 102C487.199 84 504.199 96 522.199 114C539.199 132 557.199 156 574.199 138C591.199 120 609.199 60 626.199 42C643.199 24 661.199 48 678.199 72C696.199 96 713.199 120 730.199 162C748.199 204 765.199 264 783.199 264C800.199 264 817.199 204 835.199 180C852.199 156 870.199 168 887.199 168C904.199 168 922.199 156 939.199 138C957.199 120 974.199 96 991.199 78C1009.2 60 1026.2 48 1043.2 66C1061.2 84 1078.2 132 1096.2 186C1113.2 240 1130.2 300 1148.2 312C1165.2 324 1183.2 288 1191.2 270L1200.2 252V0H1191.2C1183.2 0 1165.2 0 1148.2 0C1130.2 0 1113.2 0 1096.2 0C1078.2 0 1061.2 0 1043.2 0C1026.2 0 1009.2 0 991.199 0C974.199 0 957.199 0 939.199 0C922.199 0 904.199 0 887.199 0C870.199 0 852.199 0 835.199 0C817.199 0 800.199 0 783.199 0C765.199 0 748.199 0 730.199 0C713.199 0 696.199 0 678.199 0C661.199 0 643.199 0 626.199 0C609.199 0 591.199 0 574.199 0C557.199 0 539.199 0 522.199 0C504.199 0 487.199 0 470.199 0C452.199 0 435.199 0 417.199 0C400.199 0 383.199 0 365.199 0C348.199 0 330.199 0 313.199 0C296.199 0 278.199 0 261.199 0C243.199 0 226.199 0 209.199 0C191.199 0 174.199 0 157.199 0C139.199 0 122.199 0 104.199 0C87.1989 0 70.1989 0 52.1989 0C35.1989 0 17.1989 0 9.19885 0H0.198853V324Z" fill="#773DDD"/>
<path fill-rule="evenodd" clip-rule="evenodd" d="M0 240L9 213.333C17 186.667 35 133.333 52 124.444C70 115.556 87 151.111 104 168.889C122 186.667 139 186.667 157 164.444C174 142.222 191 97.7778 209 84.4445C226 71.1111 243 88.8889 261 120C278 151.111 296 195.556 313 186.667C330 177.778 348 115.556 365 102.222C383 88.8889 400 124.444 417 124.444C435 124.444 452 88.8889 470 75.5556C487 62.2222 504 71.1111 522 84.4445C539 97.7778 557 115.556 574 102.222C591 88.8889 605.5 37.3333 622.5 24C639.5 10.6667 666 28.2222 683 46C701 63.7778 713 88.8889 730 120C748 151.111 765 195.556 783 195.556C800 195.556 817 151.111 835 133.333C852 115.556 870 124.444 887 124.444C904 124.444 922 115.556 939 102.222C957 88.8889 969 64.8333 986 51.5C1004 38.1667 1032.5 32.6667 1049.5 46C1067.5 59.3333 1078 97.7778 1096 137.778C1113 177.778 1133 275.611 1151 284.5C1168 293.389 1180.5 235 1191.5 218.5L1200 186.667V0H1191C1183 0 1165 0 1148 0C1130 0 1113 0 1096 0C1078 0 1061 0 1043 0C1026 0 1009 0 991 0C974 0 957 0 939 0C922 0 904 0 887 0C870 0 852 0 835 0C817 0 800 0 783 0C765 0 748 0 730 0C713 0 696 0 678 0C661 0 643 0 626 0C609 0 591 0 574 0C557 0 539 0 522 0C504 0 487 0 470 0C452 0 435 0 417 0C400 0 383 0 365 0C348 0 330 0 313 0C296 0 278 0 261 0C243 0 226 0 209 0C191 0 174 0 157 0C139 0 122 0 104 0C87 0 70 0 52 0C35 0 17 0 9 0H0V240Z" fill="#B388FF"/>
</svg>
